<?xml version="1.0" encoding="UTF-8" standalone="no"?>
<svg width="353px" height="111px" viewBox="0 0 353 111" version="1.1" xmlns="http://www.w3.org/2000/svg" xmlns:xlink="http://www.w3.org/1999/xlink" xmlns:sketch="http://www.bohemiancoding.com/sketch/ns">
    <!-- Generator: Sketch 3.3.2 (12043) - http://www.bohemiancoding.com/sketch -->
    <title>Artboard 1</title>
    <desc>Created with Sketch.</desc>
    <defs></defs>
    <g id="Page-1" stroke="none" stroke-width="1" fill="none" fill-rule="evenodd" sketch:type="MSPage">
        <g id="Artboard-1" sketch:type="MSArtboardGroup">
            <path d="M150.5,22.6847507 C146.103765,22.6847507 141.962024,23.5291743 138.074776,25.2183978 C134.187529,26.9076213 130.797976,29.1982566 127.905553,32.0903037 C125.013506,34.982539 122.722682,38.3722801 121.033647,42.2595272 C119.344612,46.1469625 118.5,50.2885154 118.5,54.6847507 C118.5,59.080986 119.344612,63.2227272 121.033647,67.1099743 C122.722682,70.9972213 125.013506,74.3869625 127.905553,77.2791978 C130.797976,80.1712449 134.187718,82.4620684 138.074776,84.1511037 C141.962024,85.840139 146.103765,86.6847507 150.5,86.6847507 C154.896424,86.6847507 159.037788,85.840139 162.925224,84.1511037 C166.812471,82.4620684 170.202212,80.1712449 173.094447,77.2791978 C175.986494,74.3869625 178.277129,70.9970331 179.966353,67.1099743 C181.655576,63.2227272 182.5,59.080986 182.5,54.6847507 C182.5,50.2885154 181.655576,46.1469625 179.966353,42.2595272 C178.277129,38.3722801 175.986494,34.982539 173.094447,32.0903037 C170.202212,29.1982566 166.812282,26.9076213 162.925224,25.2183978 C159.037788,23.5293625 154.896424,22.6847507 150.5,22.6847507 L150.5,22.6847507 Z M177.502165,50.3116684 C177.270824,50.3575978 176.645694,50.5198566 175.627906,50.7973154 C174.609929,51.0747743 173.337271,51.3181625 171.810306,51.5263507 C170.283153,51.7347272 168.535953,51.8619743 166.569459,51.9079037 C164.602588,51.9542096 162.554965,51.8156684 160.426212,51.491339 C161.305459,49.0388213 162.069129,46.7133625 162.716847,44.515339 C163.364753,42.3171272 163.908376,40.3619272 164.348094,38.649739 C164.787812,36.9375507 165.111765,35.5030096 165.319765,34.3461154 C165.528329,33.1895978 165.678729,32.4023978 165.771153,31.9858331 C168.825647,34.0684684 171.382259,36.6828684 173.441553,39.829786 C175.500659,42.9770801 176.854259,46.4707272 177.502165,50.3116684 L177.502165,50.3116684 Z M161.189694,29.487386 C161.097271,30.0891743 160.912047,31.0376919 160.634588,32.3333154 C160.357129,33.6295037 159.986682,35.1909154 159.523812,37.0190566 C159.061318,38.8470096 158.494541,40.883339 157.823482,43.1274801 C157.152612,45.3718096 156.331341,47.743386 155.359106,50.2423978 C155.312612,50.1960919 155.243341,50.172939 155.150729,50.172939 C151.309976,48.8308213 148.047294,47.2227272 145.363247,45.3486566 C142.679388,43.4747743 140.492659,41.6695978 138.803624,39.9348213 C137.114588,38.1996684 135.876753,36.6836213 135.089929,35.3879978 C134.303294,34.0923743 133.840612,33.3287037 133.701694,33.0971743 C136.061788,31.2925625 138.653224,29.8813625 141.476188,28.8630096 C144.298965,27.8450331 147.306965,27.3358566 150.5,27.3358566 C154.248329,27.3354801 157.811812,28.0528449 161.189694,29.487386 L161.189694,29.487386 Z M130.161553,36.3592919 C130.300471,36.636939 130.878918,37.5163743 131.896894,38.9972213 C132.915059,40.4782566 134.361271,42.1671037 136.235341,44.0647037 C138.1096,45.9619272 140.388565,47.8710096 143.072612,49.7911978 C145.756659,51.7119507 148.880424,53.2502096 152.443529,54.4071037 C152.628753,54.4997154 152.802118,54.5575037 152.964376,54.5806566 C153.126447,54.6038096 153.299624,54.6615978 153.485035,54.7542096 C153.114776,55.5408449 152.744894,56.3043272 152.374635,57.0448449 C152.004,57.7851743 151.634118,58.5488449 151.264047,59.3354801 C147.839482,58.3175037 144.507529,57.5423507 141.268188,57.0100213 C138.028847,56.4778801 135.125129,56.096139 132.556659,55.8647978 C129.988376,55.6334566 127.859812,55.5062096 126.170588,55.4830566 C124.481553,55.4599037 123.474871,55.4484213 123.150918,55.4484213 L123.150918,54.6152919 C123.150918,51.0983037 123.775671,47.7895037 125.025176,44.6890801 C126.274682,41.5886566 127.986682,38.8119978 130.161553,36.3592919 L130.161553,36.3592919 Z M123.775482,60.2378801 C124.053129,60.2378801 124.932376,60.2493625 126.413224,60.2725154 C127.894071,60.2958566 129.768329,60.4114331 132.035812,60.6196213 C134.303294,60.8279978 136.9064,61.1634331 139.844941,61.6261154 C142.783482,62.088986 145.849271,62.7367037 149.042306,63.5698331 C147.885412,65.5596684 146.74,67.4568919 145.606259,69.2616919 C144.472518,71.0664919 143.442871,72.674586 142.517318,74.0859743 C141.591765,75.4973625 140.805129,76.6659272 140.157224,77.5914801 C139.509318,78.5170331 139.092941,79.1186331 138.907718,79.3962801 C135.020659,77.5914801 131.746682,75.0115272 129.0856,71.6566096 C126.424894,68.3015037 124.654729,64.495386 123.775482,60.2378801 L123.775482,60.2378801 Z M144.113929,81.2010801 C144.298965,80.969739 144.727012,80.3911037 145.398071,79.4655507 C146.068941,78.540186 146.878918,77.360139 147.827624,75.9255978 C148.776141,74.4910566 149.817459,72.8598096 150.951388,71.0318566 C152.084941,69.2039037 153.207576,67.2718566 154.317976,65.2357154 C156.724376,66.1149625 158.807012,67.0983037 160.565506,68.1859272 C162.323812,69.2733625 163.781506,70.3030096 164.938588,71.2746801 C166.095671,72.246539 166.963435,73.0794801 167.541506,73.7736919 C168.119953,74.4679037 168.478729,74.9074331 168.617459,75.0926566 C166.164753,77.2675272 163.399765,78.9565625 160.322118,80.1597625 C157.244847,81.3629625 153.970682,81.9645625 150.5,81.9645625 C148.371247,81.9645625 146.242494,81.7100684 144.113929,81.2010801 L144.113929,81.2010801 Z M171.671388,71.8994331 C171.532094,71.7143978 171.127576,71.2400449 170.456706,70.4765625 C169.785647,69.7128919 168.836941,68.8106801 167.610588,67.7693625 C166.384235,66.7280449 164.8456,65.6174566 162.994494,64.4374096 C161.143576,63.2573625 158.945365,62.1584449 156.400047,61.1402801 C156.724,60.4923743 157.036282,59.832986 157.337271,59.1619272 C157.637882,58.4910566 157.9272,57.8314801 158.204847,57.1835743 C158.297271,56.9522331 158.401365,56.7208919 158.516941,56.4895507 C158.632706,56.2580213 158.7368,56.0266801 158.829788,55.795339 C161.096894,56.072986 163.318259,56.1887507 165.493318,56.1424449 C167.668376,56.096139 169.635247,55.9920449 171.393741,55.8301625 C173.152235,55.6680919 174.609929,55.4830566 175.766635,55.2746801 C176.923718,55.0664919 177.617929,54.9392449 177.849271,54.892939 C177.802965,58.1322801 177.247671,61.186586 176.1832,64.0556684 C175.118918,66.9247507 173.615106,69.539339 171.671388,71.8994331 L171.671388,71.8994331 Z" id="dr" fill="#010002" sketch:type="MSShapeGroup"></path>
            <path d="M319.862891,56.048368 L319.862891,80.6903826 L305.531886,80.6903826 L305.531886,57.6988862 C305.531886,51.9230799 303.459084,47.9814237 298.271947,47.9814237 C294.311951,47.9814237 291.955448,50.6378111 290.918735,53.2074189 C290.540831,54.1261985 290.443517,55.4046489 290.443517,56.6906925 L290.443517,80.6903826 L276.107694,80.6903826 C276.107694,80.6903826 276.300766,41.7501792 276.107694,37.7158547 L290.441963,37.7158547 L290.441963,43.8071671 C290.412893,43.8527264 290.375118,43.9020048 290.347759,43.9460145 L290.441963,43.9460145 L290.441963,43.8071671 C292.346566,40.8833123 295.74771,36.7062663 303.360371,36.7062663 C312.792137,36.7059564 319.862891,42.8482518 319.862891,56.048368 L319.862891,56.048368 Z M261.111974,17 C256.207761,17 253,20.2065085 253,24.4233801 C253,28.5483584 256.114956,31.852339 260.921701,31.852339 L261.017615,31.852339 C266.016654,31.852339 269.125703,28.5489782 269.125703,24.4233801 C269.031499,20.2065085 266.016654,17 261.111974,17 L261.111974,17 Z M253.851413,80.6903826 L268.18164,80.6903826 L268.18164,37.7158547 L253.851413,37.7158547 L253.851413,80.6903826 Z" id="in" fill="#000000" sketch:type="MSShapeGroup"></path>
            <path d="M52.0267925,22.0131959 L43.7951887,22 C34.5472642,22 28.5708491,28.1261856 28.5708491,37.6080825 L28.5708491,44.8037938 L20.2943396,44.8037938 C19.5791509,44.8037938 19,45.3830928 19,46.0976495 L19,56.5250309 C19,57.2395876 19.5798113,57.8182268 20.2943396,57.8182268 L28.5708491,57.8182268 L28.5708491,84.1281649 C28.5708491,84.8427216 29.15,85.4213608 29.8651887,85.4213608 L40.6636792,85.4213608 C41.3782075,85.4213608 41.9573585,84.8420619 41.9573585,84.1281649 L41.9573585,57.8182268 L51.6351887,57.8182268 C52.3510377,57.8182268 52.9295283,57.2395876 52.9295283,56.5250309 L52.9334906,46.0976495 C52.9334906,45.7545567 52.7967925,45.4259794 52.554434,45.1838351 C52.3120755,44.9403711 51.9818868,44.8037938 51.6384906,44.8037938 L41.9573585,44.8037938 L41.9573585,38.7033402 C41.9573585,35.7712165 42.6573585,34.2833814 46.480283,34.2833814 L52.0254717,34.2814021 C52.74,34.2814021 53.3191509,33.7014433 53.3191509,32.9875464 L53.3191509,23.3063918 C53.3191509,22.5924948 52.74,22.0138557 52.0267925,22.0131959" id="fb" fill="#000000" sketch:type="MSShapeGroup"></path>
        </g>
    </g>
</svg>